<svg width="1600" height="780" viewBox="0 0 1600 780" fill="none" xmlns="http://www.w3.org/2000/svg">
  <rect width="1600" height="780" fill="#0F172A"/>
  <rect opacity="0.92" x="70" y="80" width="1460" height="620" rx="36" fill="#111827"/>
  <rect x="130" y="140" width="820" height="500" rx="26" fill="#F8FAFC"/>
  <rect x="180" y="198" width="320" height="20" rx="10" fill="#FDBA74"/>
  <rect x="180" y="236" width="470" height="14" rx="7" fill="#FED7AA"/>
  <rect x="180" y="266" width="380" height="14" rx="7" fill="#FED7AA"/>
  <rect x="180" y="330" width="110" height="220" rx="16" fill="#FED7AA"/>
  <rect x="330" y="290" width="110" height="260" rx="16" fill="#FDBA74"/>
  <rect x="480" y="245" width="110" height="305" rx="16" fill="#FB923C"/>
  <rect x="630" y="210" width="110" height="340" rx="16" fill="#F97316"/>
  <rect x="1030" y="170" width="430" height="220" rx="30" fill="#1F2937"/>
  <rect x="1090" y="230" width="280" height="16" rx="8" fill="#FDBA74"/>
  <rect x="1090" y="262" width="250" height="12" rx="6" fill="#FED7AA"/>
  <rect x="1090" y="286" width="210" height="12" rx="6" fill="#FED7AA"/>
  <rect x="1030" y="420" width="430" height="220" rx="30" fill="#1F2937"/>
  <path d="M1090 550L1160 500L1230 520L1300 470L1370 490" stroke="#F97316" stroke-width="14" stroke-linecap="round" stroke-linejoin="round"/>
  <circle cx="1330" cy="220" r="46" fill="#111827" stroke="#FDBA74" stroke-width="8"/>
  <path d="M1330 198V220H1348" stroke="#FDBA74" stroke-width="8" stroke-linecap="round" stroke-linejoin="round"/>
</svg>

