<svg width="1600" height="780" viewBox="0 0 1600 780" fill="none" xmlns="http://www.w3.org/2000/svg">
  <rect width="1600" height="780" fill="#111827"/>
  <circle cx="1320" cy="140" r="230" fill="#1F2937"/>
  <circle cx="310" cy="700" r="260" fill="#0F172A"/>
  <rect x="90" y="90" width="1420" height="600" rx="40" fill="#F8FAFC"/>
  <rect x="170" y="170" width="640" height="420" rx="28" fill="#FFF7ED"/>
  <path d="M230 470L330 410L430 445L530 350L630 390L730 300" stroke="#F97316" stroke-width="18" stroke-linecap="round" stroke-linejoin="round"/>
  <circle cx="730" cy="300" r="20" fill="#F97316"/>
  <rect x="230" y="240" width="340" height="18" rx="9" fill="#FDBA74"/>
  <rect x="230" y="274" width="430" height="14" rx="7" fill="#FED7AA"/>
  <rect x="230" y="302" width="290" height="14" rx="7" fill="#FED7AA"/>
  <rect x="860" y="170" width="560" height="160" rx="28" fill="#F3F4F6"/>
  <rect x="930" y="226" width="380" height="18" rx="9" fill="#FDBA74"/>
  <rect x="860" y="360" width="560" height="230" rx="28" fill="#F3F4F6"/>
  <rect x="930" y="420" width="350" height="16" rx="8" fill="#FDBA74"/>
  <rect x="930" y="450" width="300" height="12" rx="6" fill="#FED7AA"/>
  <rect x="930" y="474" width="240" height="12" rx="6" fill="#FED7AA"/>
  <path d="M1240 555L1310 505L1380 525" stroke="#F97316" stroke-width="12" stroke-linecap="round"/>
</svg>

